<svg width="30" height="30" viewBox="0 0 30 30" fill="none" xmlns="http://www.w3.org/2000/svg">
<g clip-path="url(#clip0_91_2)">
<path d="M17.4609 1.875C7.8125 1.875 0 7.75195 0 15C0 22.248 7.8125 28.125 17.4609 28.125C22.1953 28.125 26.4844 26.707 29.6328 24.4102C30.0234 24.123 30.125 23.6777 29.875 23.3145C29.625 22.9512 29.0859 22.7461 28.5469 22.8164C27.7812 22.916 27 22.9688 26.1953 22.9688C18.625 22.9688 12.4844 18.3516 12.4844 12.6562C12.4844 8.80078 15.2969 5.44336 19.4609 3.67383C19.9375 3.46875 20.1797 3.05859 20.0625 2.66016C19.9453 2.26172 19.4922 1.96289 18.9453 1.92773C18.4531 1.89844 17.9609 1.88086 17.4609 1.88086V1.875Z" fill="white"/>
</g>
<defs>
<clipPath id="clip0_91_2">
<rect width="30" height="30" fill="white"/>
</clipPath>
</defs>
</svg>
